<?xml version="1.0" encoding="UTF-8"?><svg id="a" xmlns="http://www.w3.org/2000/svg" viewBox="0 0 98.1872 66.9392"><defs><style>.b{fill:#999;}.b,.c{stroke-width:0px;}.c{fill:#9bca3e;}.d{fill:none;stroke:#fff;stroke-linecap:round;stroke-linejoin:round;stroke-width:4px;}</style></defs><path class="b" d="M85.7848,50.2294v-.017c6.8741-.1536,12.4024-5.7842,12.4024-12.7214,0-7.0338-5.6804-12.7359-12.6874-12.7359-1.8917,0-3.6803.4271-5.2929,1.1722-.2702-14.3642-11.9907-25.9273-26.4196-25.9273-11.6171,0-21.4765,7.4978-25.0218,17.9155-1.9742-1.483-4.4198-2.3724-7.079-2.3724-6.5235,0-11.8118,5.2883-11.8118,11.8118,0,1.1295.1681,2.218.4641,3.2524-.1889-.0109-.376-.0288-.5676-.0288-5.3965,0-9.7711,4.3993-9.7711,9.826,0,5.3959,4.3261,9.7718,9.6803,9.8214v.0035h.0697c.0071,0,.014.001.0212.001s.014-.001.0212-.001"/><circle class="c" cx="48.1126" cy="46.3854" r="20.5538"/><polyline class="d" points="42.3819 47.2468 46.1154 52.0316 53.5463 40.1302"/></svg>